<svg id="mermaid-diagram-mermaid-fs6s6qc" width="100%" xmlns="http://www.w3.org/2000/svg" xmlns:xlink="http://www.w3.org/1999/xlink" class="flowchart" style="max-width: 503.0687561035156px;" viewBox="0 0 503.0687561035156 1830" role="graphics-document document" aria-roledescription="flowchart-v2"><style>#mermaid-diagram-mermaid-fs6s6qc{font-family:"trebuchet ms",verdana,arial,sans-serif;font-size:16px;fill:#000000;}@keyframes edge-animation-frame{from{stroke-dashoffset:0;}}@keyframes dash{to{stroke-dashoffset:0;}}#mermaid-diagram-mermaid-fs6s6qc .edge-animation-slow{stroke-dasharray:9,5!important;stroke-dashoffset:900;animation:dash 50s linear infinite;stroke-linecap:round;}#mermaid-diagram-mermaid-fs6s6qc .edge-animation-fast{stroke-dasharray:9,5!important;stroke-dashoffset:900;animation:dash 20s linear infinite;stroke-linecap:round;}#mermaid-diagram-mermaid-fs6s6qc .error-icon{fill:#552222;}#mermaid-diagram-mermaid-fs6s6qc .error-text{fill:#552222;stroke:#552222;}#mermaid-diagram-mermaid-fs6s6qc .edge-thickness-normal{stroke-width:1px;}#mermaid-diagram-mermaid-fs6s6qc .edge-thickness-thick{stroke-width:3.5px;}#mermaid-diagram-mermaid-fs6s6qc .edge-pattern-solid{stroke-dasharray:0;}#mermaid-diagram-mermaid-fs6s6qc .edge-thickness-invisible{stroke-width:0;fill:none;}#mermaid-diagram-mermaid-fs6s6qc .edge-pattern-dashed{stroke-dasharray:3;}#mermaid-diagram-mermaid-fs6s6qc .edge-pattern-dotted{stroke-dasharray:2;}#mermaid-diagram-mermaid-fs6s6qc .marker{fill:#666;stroke:#666;}#mermaid-diagram-mermaid-fs6s6qc .marker.cross{stroke:#666;}#mermaid-diagram-mermaid-fs6s6qc svg{font-family:"trebuchet ms",verdana,arial,sans-serif;font-size:16px;}#mermaid-diagram-mermaid-fs6s6qc p{margin:0;}#mermaid-diagram-mermaid-fs6s6qc .label{font-family:"trebuchet ms",verdana,arial,sans-serif;color:#000000;}#mermaid-diagram-mermaid-fs6s6qc .cluster-label text{fill:#333;}#mermaid-diagram-mermaid-fs6s6qc .cluster-label span{color:#333;}#mermaid-diagram-mermaid-fs6s6qc .cluster-label span p{background-color:transparent;}#mermaid-diagram-mermaid-fs6s6qc .label text,#mermaid-diagram-mermaid-fs6s6qc span{fill:#000000;color:#000000;}#mermaid-diagram-mermaid-fs6s6qc .node rect,#mermaid-diagram-mermaid-fs6s6qc .node circle,#mermaid-diagram-mermaid-fs6s6qc .node ellipse,#mermaid-diagram-mermaid-fs6s6qc .node polygon,#mermaid-diagram-mermaid-fs6s6qc .node path{fill:#eee;stroke:#999;stroke-width:1px;}#mermaid-diagram-mermaid-fs6s6qc .rough-node .label text,#mermaid-diagram-mermaid-fs6s6qc .node .label text,#mermaid-diagram-mermaid-fs6s6qc .image-shape .label,#mermaid-diagram-mermaid-fs6s6qc .icon-shape .label{text-anchor:middle;}#mermaid-diagram-mermaid-fs6s6qc .node .katex path{fill:#000;stroke:#000;stroke-width:1px;}#mermaid-diagram-mermaid-fs6s6qc .rough-node .label,#mermaid-diagram-mermaid-fs6s6qc .node .label,#mermaid-diagram-mermaid-fs6s6qc .image-shape .label,#mermaid-diagram-mermaid-fs6s6qc .icon-shape .label{text-align:center;}#mermaid-diagram-mermaid-fs6s6qc .node.clickable{cursor:pointer;}#mermaid-diagram-mermaid-fs6s6qc .root .anchor path{fill:#666!important;stroke-width:0;stroke:#666;}#mermaid-diagram-mermaid-fs6s6qc .arrowheadPath{fill:#333333;}#mermaid-diagram-mermaid-fs6s6qc .edgePath .path{stroke:#666;stroke-width:2.0px;}#mermaid-diagram-mermaid-fs6s6qc .flowchart-link{stroke:#666;fill:none;}#mermaid-diagram-mermaid-fs6s6qc .edgeLabel{background-color:white;text-align:center;}#mermaid-diagram-mermaid-fs6s6qc .edgeLabel p{background-color:white;}#mermaid-diagram-mermaid-fs6s6qc .edgeLabel rect{opacity:0.5;background-color:white;fill:white;}#mermaid-diagram-mermaid-fs6s6qc .labelBkg{background-color:rgba(255, 255, 255, 0.5);}#mermaid-diagram-mermaid-fs6s6qc .cluster rect{fill:hsl(0, 0%, 98.9215686275%);stroke:#707070;stroke-width:1px;}#mermaid-diagram-mermaid-fs6s6qc .cluster text{fill:#333;}#mermaid-diagram-mermaid-fs6s6qc .cluster span{color:#333;}#mermaid-diagram-mermaid-fs6s6qc div.mermaidTooltip{position:absolute;text-align:center;max-width:200px;padding:2px;font-family:"trebuchet ms",verdana,arial,sans-serif;font-size:12px;background:hsl(-160, 0%, 93.3333333333%);border:1px solid #707070;border-radius:2px;pointer-events:none;z-index:100;}#mermaid-diagram-mermaid-fs6s6qc .flowchartTitleText{text-anchor:middle;font-size:18px;fill:#000000;}#mermaid-diagram-mermaid-fs6s6qc rect.text{fill:none;stroke-width:0;}#mermaid-diagram-mermaid-fs6s6qc .icon-shape,#mermaid-diagram-mermaid-fs6s6qc .image-shape{background-color:white;text-align:center;}#mermaid-diagram-mermaid-fs6s6qc .icon-shape p,#mermaid-diagram-mermaid-fs6s6qc .image-shape p{background-color:white;padding:2px;}#mermaid-diagram-mermaid-fs6s6qc .icon-shape rect,#mermaid-diagram-mermaid-fs6s6qc .image-shape rect{opacity:0.5;background-color:white;fill:white;}#mermaid-diagram-mermaid-fs6s6qc :root{--mermaid-font-family:"trebuchet ms",verdana,arial,sans-serif;}</style><g><marker id="mermaid-diagram-mermaid-fs6s6qc_flowchart-v2-pointEnd" class="marker flowchart-v2" viewBox="0 0 10 10" refX="5" refY="5" markerUnits="userSpaceOnUse" markerWidth="8" markerHeight="8" orient="auto"><path d="M 0 0 L 10 5 L 0 10 z" class="arrowMarkerPath" style="stroke-width: 1; stroke-dasharray: 1, 0;"></path></marker><marker id="mermaid-diagram-mermaid-fs6s6qc_flowchart-v2-pointStart" class="marker flowchart-v2" viewBox="0 0 10 10" refX="4.5" refY="5" markerUnits="userSpaceOnUse" markerWidth="8" markerHeight="8" orient="auto"><path d="M 0 5 L 10 10 L 10 0 z" class="arrowMarkerPath" style="stroke-width: 1; stroke-dasharray: 1, 0;"></path></marker><marker id="mermaid-diagram-mermaid-fs6s6qc_flowchart-v2-circleEnd" class="marker flowchart-v2" viewBox="0 0 10 10" refX="11" refY="5" markerUnits="userSpaceOnUse" markerWidth="11" markerHeight="11" orient="auto"><circle cx="5" cy="5" r="5" class="arrowMarkerPath" style="stroke-width: 1; stroke-dasharray: 1, 0;"></circle></marker><marker id="mermaid-diagram-mermaid-fs6s6qc_flowchart-v2-circleStart" class="marker flowchart-v2" viewBox="0 0 10 10" refX="-1" refY="5" markerUnits="userSpaceOnUse" markerWidth="11" markerHeight="11" orient="auto"><circle cx="5" cy="5" r="5" class="arrowMarkerPath" style="stroke-width: 1; stroke-dasharray: 1, 0;"></circle></marker><marker id="mermaid-diagram-mermaid-fs6s6qc_flowchart-v2-crossEnd" class="marker cross flowchart-v2" viewBox="0 0 11 11" refX="12" refY="5.2" markerUnits="userSpaceOnUse" markerWidth="11" markerHeight="11" orient="auto"><path d="M 1,1 l 9,9 M 10,1 l -9,9" class="arrowMarkerPath" style="stroke-width: 2; stroke-dasharray: 1, 0;"></path></marker><marker id="mermaid-diagram-mermaid-fs6s6qc_flowchart-v2-crossStart" class="marker cross flowchart-v2" viewBox="0 0 11 11" refX="-1" refY="5.2" markerUnits="userSpaceOnUse" markerWidth="11" markerHeight="11" orient="auto"><path d="M 1,1 l 9,9 M 10,1 l -9,9" class="arrowMarkerPath" style="stroke-width: 2; stroke-dasharray: 1, 0;"></path></marker><g class="root"><g class="clusters"></g><g class="edgePaths"><path d="M211.078,62L211.078,66.167C211.078,70.333,211.078,78.667,211.078,86.333C211.078,94,211.078,101,211.078,104.5L211.078,108" id="L_A_B_0" class="edge-thickness-normal edge-pattern-solid edge-thickness-normal edge-pattern-solid flowchart-link" style="" marker-end="url(#mermaid-diagram-mermaid-fs6s6qc_flowchart-v2-pointEnd)"></path><path d="M211.078,166L211.078,170.167C211.078,174.333,211.078,182.667,211.078,190.333C211.078,198,211.078,205,211.078,208.5L211.078,212" id="L_B_C_0" class="edge-thickness-normal edge-pattern-solid edge-thickness-normal edge-pattern-solid flowchart-link" style="" marker-end="url(#mermaid-diagram-mermaid-fs6s6qc_flowchart-v2-pointEnd)"></path><path d="M211.078,270L211.078,274.167C211.078,278.333,211.078,286.667,211.148,294.417C211.219,302.167,211.359,309.334,211.429,312.917L211.5,316.501" id="L_C_D_0" class="edge-thickness-normal edge-pattern-solid edge-thickness-normal edge-pattern-solid flowchart-link" style="" marker-end="url(#mermaid-diagram-mermaid-fs6s6qc_flowchart-v2-pointEnd)"></path><path d="M179.942,406.864L166.633,418.22C153.324,429.576,126.706,452.288,113.397,469.144C100.088,486,100.088,497,100.088,502.5L100.088,508" id="L_D_E_0" class="edge-thickness-normal edge-pattern-solid edge-thickness-normal edge-pattern-solid flowchart-link" style="" marker-end="url(#mermaid-diagram-mermaid-fs6s6qc_flowchart-v2-pointEnd)"></path><path d="M243.215,406.864L256.357,418.22C269.499,429.576,295.784,452.288,308.926,469.144C322.069,486,322.069,497,322.069,502.5L322.069,508" id="L_D_F_0" class="edge-thickness-normal edge-pattern-solid edge-thickness-normal edge-pattern-solid flowchart-link" style="" marker-end="url(#mermaid-diagram-mermaid-fs6s6qc_flowchart-v2-pointEnd)"></path><path d="M279.232,566L272.622,570.167C266.011,574.333,252.79,582.667,246.179,590.333C239.569,598,239.569,605,239.569,608.5L239.569,612" id="L_F_G_0" class="edge-thickness-normal edge-pattern-solid edge-thickness-normal edge-pattern-solid flowchart-link" style="" marker-end="url(#mermaid-diagram-mermaid-fs6s6qc_flowchart-v2-pointEnd)"></path><path d="M239.569,670L239.569,674.167C239.569,678.333,239.569,686.667,239.569,694.333C239.569,702,239.569,709,239.569,712.5L239.569,716" id="L_G_H_0" class="edge-thickness-normal edge-pattern-solid edge-thickness-normal edge-pattern-solid flowchart-link" style="" marker-end="url(#mermaid-diagram-mermaid-fs6s6qc_flowchart-v2-pointEnd)"></path><path d="M239.569,774L239.569,778.167C239.569,782.333,239.569,790.667,239.569,798.333C239.569,806,239.569,813,239.569,816.5L239.569,820" id="L_H_I_0" class="edge-thickness-normal edge-pattern-solid edge-thickness-normal edge-pattern-solid flowchart-link" style="" marker-end="url(#mermaid-diagram-mermaid-fs6s6qc_flowchart-v2-pointEnd)"></path><path d="M239.569,878L239.569,882.167C239.569,886.333,239.569,894.667,239.639,902.417C239.709,910.167,239.85,917.334,239.92,920.917L239.99,924.501" id="L_I_J_0" class="edge-thickness-normal edge-pattern-solid edge-thickness-normal edge-pattern-solid flowchart-link" style="" marker-end="url(#mermaid-diagram-mermaid-fs6s6qc_flowchart-v2-pointEnd)"></path><path d="M212.8,1019.231L203.511,1029.859C194.223,1040.487,175.646,1061.744,166.357,1083.039C157.069,1104.333,157.069,1125.667,157.069,1145C157.069,1164.333,157.069,1181.667,157.069,1201C157.069,1220.333,157.069,1241.667,157.069,1265C157.069,1288.333,157.069,1313.667,157.069,1339C157.069,1364.333,157.069,1389.667,157.069,1413C157.069,1436.333,157.069,1457.667,157.069,1486.333C157.069,1515,157.069,1551,157.069,1589C157.069,1627,157.069,1667,169.851,1692.888C182.634,1718.776,208.199,1730.551,220.982,1736.439L233.765,1742.327" id="L_J_K_0" class="edge-thickness-normal edge-pattern-solid edge-thickness-normal edge-pattern-solid flowchart-link" style="" marker-end="url(#mermaid-diagram-mermaid-fs6s6qc_flowchart-v2-pointEnd)"></path><path d="M267.338,1019.231L276.46,1029.859C285.581,1040.487,303.825,1061.744,312.947,1077.872C322.069,1094,322.069,1105,322.069,1110.5L322.069,1116" id="L_J_L_0" class="edge-thickness-normal edge-pattern-solid edge-thickness-normal edge-pattern-solid flowchart-link" style="" marker-end="url(#mermaid-diagram-mermaid-fs6s6qc_flowchart-v2-pointEnd)"></path><path d="M322.069,1174L322.069,1178.167C322.069,1182.333,322.069,1190.667,322.069,1198.333C322.069,1206,322.069,1213,322.069,1216.5L322.069,1220" id="L_L_M_0" class="edge-thickness-normal edge-pattern-solid edge-thickness-normal edge-pattern-solid flowchart-link" style="" marker-end="url(#mermaid-diagram-mermaid-fs6s6qc_flowchart-v2-pointEnd)"></path><path d="M322.069,1302L322.069,1308.167C322.069,1314.333,322.069,1326.667,322.069,1338.333C322.069,1350,322.069,1361,322.069,1366.5L322.069,1372" id="L_M_N_0" class="edge-thickness-normal edge-pattern-solid edge-thickness-normal edge-pattern-solid flowchart-link" style="" marker-end="url(#mermaid-diagram-mermaid-fs6s6qc_flowchart-v2-pointEnd)"></path><path d="M322.069,1454L322.069,1458.167C322.069,1462.333,322.069,1470.667,329.506,1484.545C336.943,1498.423,351.817,1517.846,359.255,1527.558L366.692,1537.269" id="L_N_O_0" class="edge-thickness-normal edge-pattern-solid edge-thickness-normal edge-pattern-solid flowchart-link" style="" marker-end="url(#mermaid-diagram-mermaid-fs6s6qc_flowchart-v2-pointEnd)"></path><path d="M441.014,1540.445L448.689,1530.204C456.365,1519.963,471.717,1499.482,479.393,1478.574C487.069,1457.667,487.069,1436.333,487.069,1413C487.069,1389.667,487.069,1364.333,487.069,1339C487.069,1313.667,487.069,1288.333,487.069,1265C487.069,1241.667,487.069,1220.333,487.069,1201C487.069,1181.667,487.069,1164.333,487.069,1145C487.069,1125.667,487.069,1104.333,487.069,1077.667C487.069,1051,487.069,1019,487.069,989C487.069,959,487.069,931,487.069,908.333C487.069,885.667,487.069,868.333,487.069,851C487.069,833.667,487.069,816.333,487.069,799C487.069,781.667,487.069,764.333,487.069,747C487.069,729.667,487.069,712.333,487.069,695C487.069,677.667,487.069,660.333,487.069,643C487.069,625.667,487.069,608.333,474.483,595.7C461.898,583.067,436.727,575.135,424.142,571.169L411.557,567.202" id="L_O_F_0" class="edge-thickness-normal edge-pattern-solid edge-thickness-normal edge-pattern-solid flowchart-link" style="" marker-end="url(#mermaid-diagram-mermaid-fs6s6qc_flowchart-v2-pointEnd)"></path><path d="M405.069,1670.5L404.985,1676.583C404.902,1682.667,404.735,1694.833,398.448,1706.632C392.161,1718.43,379.754,1729.86,373.55,1735.575L367.346,1741.29" id="L_O_K_0" class="edge-thickness-normal edge-pattern-solid edge-thickness-normal edge-pattern-solid flowchart-link" style="" marker-end="url(#mermaid-diagram-mermaid-fs6s6qc_flowchart-v2-pointEnd)"></path></g><g class="edgeLabels"><g class="edgeLabel"><g class="label" transform="translate(0, 0)"><foreignObject width="0" height="0"><div style="display: table-cell; white-space: nowrap; line-height: 1.5; max-width: 200px; text-align: center;" xmlns="http://www.w3.org/1999/xhtml" class="labelBkg"><span class="edgeLabel"></span></div></foreignObject></g></g><g class="edgeLabel"><g class="label" transform="translate(0, 0)"><foreignObject width="0" height="0"><div style="display: table-cell; white-space: nowrap; line-height: 1.5; max-width: 200px; text-align: center;" xmlns="http://www.w3.org/1999/xhtml" class="labelBkg"><span class="edgeLabel"></span></div></foreignObject></g></g><g class="edgeLabel"><g class="label" transform="translate(0, 0)"><foreignObject width="0" height="0"><div style="display: table-cell; white-space: nowrap; line-height: 1.5; max-width: 200px; text-align: center;" xmlns="http://www.w3.org/1999/xhtml" class="labelBkg"><span class="edgeLabel"></span></div></foreignObject></g></g><g class="edgeLabel" transform="translate(100.0875015258789, 475)"><g class="label" transform="translate(-92.0875015258789, -12)"><foreignObject width="184.1750030517578" height="24"><div style="display: table-cell; white-space: nowrap; line-height: 1.5; max-width: 200px; text-align: center;" xmlns="http://www.w3.org/1999/xhtml" class="labelBkg"><span class="edgeLabel"><p>斜線指令\n如 /still /reset</p></span></div></foreignObject></g></g><g class="edgeLabel" transform="translate(322.0687484741211, 475)"><g class="label" transform="translate(-32, -12)"><foreignObject width="64" height="24"><div style="display: table-cell; white-space: nowrap; line-height: 1.5; max-width: 200px; text-align: center;" xmlns="http://www.w3.org/1999/xhtml" class="labelBkg"><span class="edgeLabel"><p>自然語言</p></span></div></foreignObject></g></g><g class="edgeLabel"><g class="label" transform="translate(0, 0)"><foreignObject width="0" height="0"><div style="display: table-cell; white-space: nowrap; line-height: 1.5; max-width: 200px; text-align: center;" xmlns="http://www.w3.org/1999/xhtml" class="labelBkg"><span class="edgeLabel"></span></div></foreignObject></g></g><g class="edgeLabel"><g class="label" transform="translate(0, 0)"><foreignObject width="0" height="0"><div style="display: table-cell; white-space: nowrap; line-height: 1.5; max-width: 200px; text-align: center;" xmlns="http://www.w3.org/1999/xhtml" class="labelBkg"><span class="edgeLabel"></span></div></foreignObject></g></g><g class="edgeLabel"><g class="label" transform="translate(0, 0)"><foreignObject width="0" height="0"><div style="display: table-cell; white-space: nowrap; line-height: 1.5; max-width: 200px; text-align: center;" xmlns="http://www.w3.org/1999/xhtml" class="labelBkg"><span class="edgeLabel"></span></div></foreignObject></g></g><g class="edgeLabel"><g class="label" transform="translate(0, 0)"><foreignObject width="0" height="0"><div style="display: table-cell; white-space: nowrap; line-height: 1.5; max-width: 200px; text-align: center;" xmlns="http://www.w3.org/1999/xhtml" class="labelBkg"><span class="edgeLabel"></span></div></foreignObject></g></g><g class="edgeLabel" transform="translate(157.0687484741211, 1339)"><g class="label" transform="translate(-24, -12)"><foreignObject width="48" height="24"><div style="display: table-cell; white-space: nowrap; line-height: 1.5; max-width: 200px; text-align: center;" xmlns="http://www.w3.org/1999/xhtml" class="labelBkg"><span class="edgeLabel"><p>純文字</p></span></div></foreignObject></g></g><g class="edgeLabel" transform="translate(322.0687484741211, 1083)"><g class="label" transform="translate(-51.76250076293945, -12)"><foreignObject width="103.5250015258789" height="24"><div style="display: table-cell; white-space: nowrap; line-height: 1.5; max-width: 200px; text-align: center;" xmlns="http://www.w3.org/1999/xhtml" class="labelBkg"><span class="edgeLabel"><p>tool_call JSON</p></span></div></foreignObject></g></g><g class="edgeLabel"><g class="label" transform="translate(0, 0)"><foreignObject width="0" height="0"><div style="display: table-cell; white-space: nowrap; line-height: 1.5; max-width: 200px; text-align: center;" xmlns="http://www.w3.org/1999/xhtml" class="labelBkg"><span class="edgeLabel"></span></div></foreignObject></g></g><g class="edgeLabel"><g class="label" transform="translate(0, 0)"><foreignObject width="0" height="0"><div style="display: table-cell; white-space: nowrap; line-height: 1.5; max-width: 200px; text-align: center;" xmlns="http://www.w3.org/1999/xhtml" class="labelBkg"><span class="edgeLabel"></span></div></foreignObject></g></g><g class="edgeLabel"><g class="label" transform="translate(0, 0)"><foreignObject width="0" height="0"><div style="display: table-cell; white-space: nowrap; line-height: 1.5; max-width: 200px; text-align: center;" xmlns="http://www.w3.org/1999/xhtml" class="labelBkg"><span class="edgeLabel"></span></div></foreignObject></g></g><g class="edgeLabel" transform="translate(487.0687484741211, 987)"><g class="label" transform="translate(-8, -12)"><foreignObject width="16" height="24"><div style="display: table-cell; white-space: nowrap; line-height: 1.5; max-width: 200px; text-align: center;" xmlns="http://www.w3.org/1999/xhtml" class="labelBkg"><span class="edgeLabel"><p>是</p></span></div></foreignObject></g></g><g class="edgeLabel" transform="translate(404.5687484741211, 1707)"><g class="label" transform="translate(-8, -12)"><foreignObject width="16" height="24"><div style="display: table-cell; white-space: nowrap; line-height: 1.5; max-width: 200px; text-align: center;" xmlns="http://www.w3.org/1999/xhtml" class="labelBkg"><span class="edgeLabel"><p>否</p></span></div></foreignObject></g></g></g><g class="nodes"><g class="node default" id="flowchart-A-0" transform="translate(211.078125, 35)"><rect class="basic label-container" style="" x="-105.1187515258789" y="-27" width="210.2375030517578" height="54"></rect><g class="label" style="" transform="translate(-75.1187515258789, -12)"><rect></rect><foreignObject width="150.2375030517578" height="24"><div style="display: table-cell; white-space: nowrap; line-height: 1.5; max-width: 200px; text-align: center;" xmlns="http://www.w3.org/1999/xhtml"><span class="nodeLabel"><p>Telegram 使用者訊息</p></span></div></foreignObject></g></g><g class="node default" id="flowchart-B-1" transform="translate(211.078125, 139)"><rect class="basic label-container" style="" x="-107.375" y="-27" width="214.75" height="54"></rect><g class="label" style="" transform="translate(-77.375, -12)"><rect></rect><foreignObject width="154.75" height="24"><div style="display: table-cell; white-space: nowrap; line-height: 1.5; max-width: 200px; text-align: center;" xmlns="http://www.w3.org/1999/xhtml"><span class="nodeLabel"><p>FreeRTOS Polling Task</p></span></div></foreignObject></g></g><g class="node default" id="flowchart-C-3" transform="translate(211.078125, 243)"><rect class="basic label-container" style="" x="-103.35625457763672" y="-27" width="206.71250915527344" height="54"></rect><g class="label" style="" transform="translate(-73.35625457763672, -12)"><rect></rect><foreignObject width="146.71250915527344" height="24"><div style="display: table-cell; white-space: nowrap; line-height: 1.5; max-width: 200px; text-align: center;" xmlns="http://www.w3.org/1999/xhtml"><span class="nodeLabel"><p>getTelegramMessage</p></span></div></foreignObject></g></g><g class="node default" id="flowchart-D-5" transform="translate(211.078125, 379)"><polygon points="59,0 118,-59 59,-118 0,-59" class="label-container" transform="translate(-59,59)"></polygon><g class="label" style="" transform="translate(-32, -12)"><rect></rect><foreignObject width="64" height="24"><div style="display: table-cell; white-space: nowrap; line-height: 1.5; max-width: 200px; text-align: center;" xmlns="http://www.w3.org/1999/xhtml"><span class="nodeLabel"><p>訊息類型</p></span></div></foreignObject></g></g><g class="node default" id="flowchart-E-7" transform="translate(100.0875015258789, 539)"><rect class="basic label-container" style="" x="-73.20000076293945" y="-27" width="146.4000015258789" height="54"></rect><g class="label" style="" transform="translate(-43.20000076293945, -12)"><rect></rect><foreignObject width="86.4000015258789" height="24"><div style="display: table-cell; white-space: nowrap; line-height: 1.5; max-width: 200px; text-align: center;" xmlns="http://www.w3.org/1999/xhtml"><span class="nodeLabel"><p>executeTool</p></span></div></foreignObject></g></g><g class="node default" id="flowchart-F-9" transform="translate(322.0687484741211, 539)"><rect class="basic label-container" style="" x="-98.78125" y="-27" width="197.5625" height="54"></rect><g class="label" style="" transform="translate(-68.78125, -12)"><rect></rect><foreignObject width="137.5625" height="24"><div style="display: table-cell; white-space: nowrap; line-height: 1.5; max-width: 200px; text-align: center;" xmlns="http://www.w3.org/1999/xhtml"><span class="nodeLabel"><p>geminiChatRequest</p></span></div></foreignObject></g></g><g class="node default" id="flowchart-G-11" transform="translate(239.5687484741211, 643)"><rect class="basic label-container" style="" x="-87.13750076293945" y="-27" width="174.2750015258789" height="54"></rect><g class="label" style="" transform="translate(-57.13750076293945, -12)"><rect></rect><foreignObject width="114.2750015258789" height="24"><div style="display: table-cell; white-space: nowrap; line-height: 1.5; max-width: 200px; text-align: center;" xmlns="http://www.w3.org/1999/xhtml"><span class="nodeLabel"><p>呼叫 Gemini API</p></span></div></foreignObject></g></g><g class="node default" id="flowchart-H-13" transform="translate(239.5687484741211, 747)"><rect class="basic label-container" style="" x="-89.76250076293945" y="-27" width="179.5250015258789" height="54"></rect><g class="label" style="" transform="translate(-59.76250076293945, -12)"><rect></rect><foreignObject width="119.5250015258789" height="24"><div style="display: table-cell; white-space: nowrap; line-height: 1.5; max-width: 200px; text-align: center;" xmlns="http://www.w3.org/1999/xhtml"><span class="nodeLabel"><p>Gemini 回傳回應</p></span></div></foreignObject></g></g><g class="node default" id="flowchart-I-15" transform="translate(239.5687484741211, 851)"><rect class="basic label-container" style="" x="-107.42500305175781" y="-27" width="214.85000610351562" height="54"></rect><g class="label" style="" transform="translate(-77.42500305175781, -12)"><rect></rect><foreignObject width="154.85000610351562" height="24"><div style="display: table-cell; white-space: nowrap; line-height: 1.5; max-width: 200px; text-align: center;" xmlns="http://www.w3.org/1999/xhtml"><span class="nodeLabel"><p>handleAgentResponse</p></span></div></foreignObject></g></g><g class="node default" id="flowchart-J-17" transform="translate(239.5687484741211, 987)"><polygon points="59,0 118,-59 59,-118 0,-59" class="label-container" transform="translate(-59,59)"></polygon><g class="label" style="" transform="translate(-32, -12)"><rect></rect><foreignObject width="64" height="24"><div style="display: table-cell; white-space: nowrap; line-height: 1.5; max-width: 200px; text-align: center;" xmlns="http://www.w3.org/1999/xhtml"><span class="nodeLabel"><p>回應格式</p></span></div></foreignObject></g></g><g class="node default" id="flowchart-K-19" transform="translate(322.0687484741211, 1783)"><rect class="basic label-container" style="" x="-130" y="-39" width="260" height="78"></rect><g class="label" style="" transform="translate(-100, -24)"><rect></rect><foreignObject width="200" height="48"><div style="display: table; white-space: break-spaces; line-height: 1.5; max-width: 200px; text-align: center; width: 200px;" xmlns="http://www.w3.org/1999/xhtml"><span class="nodeLabel"><p>telegramSendMessage\n回覆使用者</p></span></div></foreignObject></g></g><g class="node default" id="flowchart-L-21" transform="translate(322.0687484741211, 1147)"><rect class="basic label-container" style="" x="-73.20000076293945" y="-27" width="146.4000015258789" height="54"></rect><g class="label" style="" transform="translate(-43.20000076293945, -12)"><rect></rect><foreignObject width="86.4000015258789" height="24"><div style="display: table-cell; white-space: nowrap; line-height: 1.5; max-width: 200px; text-align: center;" xmlns="http://www.w3.org/1999/xhtml"><span class="nodeLabel"><p>executeTool</p></span></div></foreignObject></g></g><g class="node default" id="flowchart-M-23" transform="translate(322.0687484741211, 1263)"><rect class="basic label-container" style="" x="-130" y="-39" width="260" height="78"></rect><g class="label" style="" transform="translate(-100, -24)"><rect></rect><foreignObject width="200" height="48"><div style="display: table; white-space: break-spaces; line-height: 1.5; max-width: 200px; text-align: center; width: 200px;" xmlns="http://www.w3.org/1999/xhtml"><span class="nodeLabel"><p>執行硬體 / 拍照 / Vision / Search</p></span></div></foreignObject></g></g><g class="node default" id="flowchart-N-25" transform="translate(322.0687484741211, 1415)"><rect class="basic label-container" style="" x="-130" y="-39" width="260" height="78"></rect><g class="label" style="" transform="translate(-100, -24)"><rect></rect><foreignObject width="200" height="48"><div style="display: table; white-space: break-spaces; line-height: 1.5; max-width: 200px; text-align: center; width: 200px;" xmlns="http://www.w3.org/1999/xhtml"><span class="nodeLabel"><p>記錄歷史 + 存入 memory.md</p></span></div></foreignObject></g></g><g class="node default" id="flowchart-O-27" transform="translate(404.5687484741211, 1587)"><polygon points="83,0 166,-83 83,-166 0,-83" class="label-container" transform="translate(-83,83)"></polygon><g class="label" style="" transform="translate(-56, -12)"><rect></rect><foreignObject width="112" height="24"><div style="display: table-cell; white-space: nowrap; line-height: 1.5; max-width: 200px; text-align: center;" xmlns="http://www.w3.org/1999/xhtml"><span class="nodeLabel"><p>是否繼續工作流</p></span></div></foreignObject></g></g></g></g></g></svg>